<svg width="200" height="32" viewBox="0 0 200 32" fill="none" xmlns="http://www.w3.org/2000/svg">
<path d="M22.112 6.608C23.2213 6.608 24.256 6.87467 25.216 7.408C26.1973 7.92 26.9867 8.69867 27.584 9.744C28.1813 10.7893 28.48 12.048 28.48 13.52C28.48 15.4613 28 17.4453 27.04 19.472C26.1013 21.4987 24.6933 23.408 22.816 25.2C20.9387 26.9707 18.6773 28.464 16.032 29.68C13.3653 28.464 11.0933 26.9707 9.216 25.2C7.33867 23.4293 5.92 21.5413 4.96 19.536C4.02133 17.5307 3.552 15.5467 3.552 13.584C3.552 12.0907 3.85067 10.8213 4.448 9.776C5.04533 8.73067 5.83467 7.94133 6.816 7.408C7.79733 6.87467 8.84267 6.608 9.952 6.608C11.3173 6.608 12.5227 7.06667 13.568 7.984C14.6347 8.88 15.456 10.128 16.032 11.728C16.5867 10.128 17.3973 8.88 18.464 7.984C19.552 7.06667 20.768 6.608 22.112 6.608Z" fill="#A95151"/>
<path d="M64.112 6.608C65.2213 6.608 66.256 6.87467 67.216 7.408C68.1973 7.92 68.9867 8.69867 69.584 9.744C70.1813 10.7893 70.48 12.048 70.48 13.52C70.48 15.4613 70 17.4453 69.04 19.472C68.1013 21.4987 66.6933 23.408 64.816 25.2C62.9387 26.9707 60.6773 28.464 58.032 29.68C55.3653 28.464 53.0933 26.9707 51.216 25.2C49.3387 23.4293 47.92 21.5413 46.96 19.536C46.0213 17.5307 45.552 15.5467 45.552 13.584C45.552 12.0907 45.8507 10.8213 46.448 9.776C47.0453 8.73067 47.8347 7.94133 48.816 7.408C49.7973 6.87467 50.8427 6.608 51.952 6.608C53.3173 6.608 54.5227 7.06667 55.568 7.984C56.6347 8.88 57.456 10.128 58.032 11.728C58.5867 10.128 59.3973 8.88 60.464 7.984C61.552 7.06667 62.768 6.608 64.112 6.608Z" fill="#A95151"/>
<path d="M106.112 6.608C107.221 6.608 108.256 6.87467 109.216 7.408C110.197 7.92 110.987 8.69867 111.584 9.744C112.181 10.7893 112.48 12.048 112.48 13.52C112.48 15.4613 112 17.4453 111.04 19.472C110.101 21.4987 108.693 23.408 106.816 25.2C104.939 26.9707 102.677 28.464 100.032 29.68C97.3653 28.464 95.0933 26.9707 93.216 25.2C91.3387 23.4293 89.92 21.5413 88.96 19.536C88.0213 17.5307 87.552 15.5467 87.552 13.584C87.552 12.0907 87.8507 10.8213 88.448 9.776C89.0453 8.73067 89.8347 7.94133 90.816 7.408C91.7973 6.87467 92.8427 6.608 93.952 6.608C95.3173 6.608 96.5227 7.06667 97.568 7.984C98.6347 8.88 99.456 10.128 100.032 11.728C100.587 10.128 101.397 8.88 102.464 7.984C103.552 7.06667 104.768 6.608 106.112 6.608Z" fill="#A95151"/>
<path d="M148.112 6.608C149.221 6.608 150.256 6.87467 151.216 7.408C152.197 7.92 152.987 8.69867 153.584 9.744C154.181 10.7893 154.48 12.048 154.48 13.52C154.48 15.4613 154 17.4453 153.04 19.472C152.101 21.4987 150.693 23.408 148.816 25.2C146.939 26.9707 144.677 28.464 142.032 29.68C139.365 28.464 137.093 26.9707 135.216 25.2C133.339 23.4293 131.92 21.5413 130.96 19.536C130.021 17.5307 129.552 15.5467 129.552 13.584C129.552 12.0907 129.851 10.8213 130.448 9.776C131.045 8.73067 131.835 7.94133 132.816 7.408C133.797 6.87467 134.843 6.608 135.952 6.608C137.317 6.608 138.523 7.06667 139.568 7.984C140.635 8.88 141.456 10.128 142.032 11.728C142.587 10.128 143.397 8.88 144.464 7.984C145.552 7.06667 146.768 6.608 148.112 6.608Z" fill="#A95151"/>
<path d="M190.112 6.608C191.221 6.608 192.256 6.87467 193.216 7.408C194.197 7.92 194.987 8.69867 195.584 9.744C196.181 10.7893 196.48 12.048 196.48 13.52C196.48 15.4613 196 17.4453 195.04 19.472C194.101 21.4987 192.693 23.408 190.816 25.2C188.939 26.9707 186.677 28.464 184.032 29.68C181.365 28.464 179.093 26.9707 177.216 25.2C175.339 23.4293 173.92 21.5413 172.96 19.536C172.021 17.5307 171.552 15.5467 171.552 13.584C171.552 12.0907 171.851 10.8213 172.448 9.776C173.045 8.73067 173.835 7.94133 174.816 7.408C175.797 6.87467 176.843 6.608 177.952 6.608C179.317 6.608 180.523 7.06667 181.568 7.984C182.635 8.88 183.456 10.128 184.032 11.728C184.587 10.128 185.397 8.88 186.464 7.984C187.552 7.06667 188.768 6.608 190.112 6.608Z" fill="#A95151"/>
</svg>
