<svg width="30" height="24" viewBox="0 0 30 24" fill="none" xmlns="http://www.w3.org/2000/svg">
<path d="M12.2129 15.7617C12.2129 16.8432 11.6495 18.613 10.316 18.613C8.98242 18.613 8.41902 16.8432 8.41902 15.7617C8.41902 14.6801 8.98242 12.9104 10.316 12.9104C11.6495 12.9104 12.2129 14.6801 12.2129 15.7617ZM27.4041 13.1484C27.4041 14.7992 27.2387 16.5483 26.4996 18.0645C24.5406 22.0284 19.1547 21.9352 15.2987 21.9352C11.3808 21.9352 5.67437 22.0749 3.63785 18.0645C2.8832 16.5638 2.59375 14.7992 2.59375 13.1484C2.59375 10.9802 3.31222 8.93093 4.73881 7.26982C4.47003 6.4522 4.34081 5.59318 4.34081 4.74452C4.34081 3.63193 4.59409 3.07305 5.09546 2.06396C7.43694 2.06396 8.9359 2.5297 10.7191 3.9269C12.2181 3.56983 13.7584 3.40941 15.3039 3.40941C16.6995 3.40941 18.1054 3.55948 19.4596 3.8855C21.217 2.50382 22.716 2.06396 25.0316 2.06396C25.5382 3.07305 25.7863 3.63193 25.7863 4.74452C25.7863 5.59318 25.6519 6.43668 25.3883 7.23877C26.8097 8.91541 27.4041 10.9802 27.4041 13.1484ZM24.0806 15.7617C24.0806 13.4899 22.7005 11.4873 20.2815 11.4873C19.3046 11.4873 18.369 11.6632 17.3869 11.7978C16.6168 11.9168 15.8466 11.9634 15.0558 11.9634C14.2701 11.9634 13.5 11.9168 12.7246 11.7978C11.7581 11.6632 10.8122 11.4873 9.83011 11.4873C7.4111 11.4873 6.03102 13.4899 6.03102 15.7617C6.03102 20.3052 10.1868 21.0038 13.8049 21.0038H16.2963C19.93 21.0038 24.0806 20.3103 24.0806 15.7617ZM19.8111 12.9104C18.4776 12.9104 17.9141 14.6801 17.9141 15.7617C17.9141 16.8432 18.4776 18.613 19.8111 18.613C21.1447 18.613 21.7081 16.8432 21.7081 15.7617C21.7081 14.6801 21.1447 12.9104 19.8111 12.9104Z" fill="#BABABA"/>
</svg>
