<svg width="30" height="24" viewBox="0 0 30 24" fill="none" xmlns="http://www.w3.org/2000/svg">
<path d="M8.70851 13.4865H16.6451V21.1814H13.3738L12.9835 17.8916C12.6117 19.0687 11.9488 19.9423 10.9947 20.5123C10.0406 21.0823 8.8758 21.3673 7.50038 21.3673C6.24887 21.3673 5.13367 21.0885 4.15477 20.5309C3.18826 19.9733 2.4262 19.1741 1.8686 18.1332C1.32339 17.0923 1.05078 15.878 1.05078 14.4902C1.05078 12.2722 1.71371 10.5188 3.03956 9.23016C4.36542 7.94148 6.42854 7.29714 9.22894 7.29714C10.8274 7.29714 12.2338 7.55735 13.4481 8.07778C14.6749 8.59821 15.7157 9.40364 16.5707 10.4941C16.0131 10.7791 14.9227 11.349 13.2994 12.204L12.8348 12.4643C12.3515 11.981 11.7877 11.6217 11.1434 11.3862C10.499 11.1384 9.81752 11.0145 9.09883 11.0145C7.90928 11.0145 7.02332 11.3305 6.44093 11.9624C5.85855 12.582 5.56736 13.3502 5.56736 14.2672C5.56736 15.2585 5.87714 16.0577 6.49669 16.6649C7.12864 17.272 8.08896 17.5756 9.37764 17.5756C9.93524 17.5756 10.4743 17.4951 10.9947 17.334C11.5275 17.1729 11.9736 16.8941 12.3329 16.4976H8.70851V13.4865Z" fill="#BABABA"/>
<path d="M28.9495 6.53603C27.0041 6.47407 25.1144 6.4369 23.2805 6.42451V16.1268H18.6338V6.42451C16.7875 6.4369 14.9041 6.47407 12.9835 6.53603V2.63281H28.9495V6.53603Z" fill="#BABABA"/>
</svg>
