<svg width="39" height="41" viewBox="0 0 39 41" fill="none" xmlns="http://www.w3.org/2000/svg">
    <path fill="currentColor" d="M31.369 2.2384C31.3126 1.89999 31.1843 1.57759 30.9928 1.29296C30.8012 1.00832 30.5509 0.768067 30.2586 0.588384C29.9663 0.408701 29.6389 0.293769 29.2985 0.251337C28.958 0.208904 28.6124 0.239958 28.285 0.342404L11.485 5.5912C10.9965 5.74371 10.5695 6.04836 10.2664 6.4607C9.96334 6.87303 9.79998 7.37145 9.8002 7.8832V27.4C8.71891 26.589 7.39547 26.1669 6.04431 26.202C4.69315 26.2371 3.39342 26.7274 2.35572 27.5935C1.31801 28.4595 0.603118 29.6506 0.326863 30.9737C0.0506083 32.2968 0.229178 33.6744 0.833639 34.8833C1.4381 36.0922 2.43304 37.0616 3.65726 37.6345C4.88148 38.2073 6.26326 38.35 7.57872 38.0395C8.89418 37.729 10.0663 36.9834 10.905 35.9235C11.7438 34.8636 12.2002 33.5516 12.2002 32.2V15.0832L29.0002 9.832V16.6552C29.8234 16.7272 30.6274 16.8784 31.4002 17.0968V2.632C31.4002 2.4976 31.3882 2.368 31.369 2.2384ZM38.6002 29.8C38.6002 32.6643 37.4623 35.4114 35.437 37.4368C33.4116 39.4621 30.6645 40.6 27.8002 40.6C24.9359 40.6 22.1888 39.4621 20.1635 37.4368C18.1381 35.4114 17.0002 32.6643 17.0002 29.8C17.0002 26.9357 18.1381 24.1886 20.1635 22.1632C22.1888 20.1379 24.9359 19 27.8002 19C30.6645 19 33.4116 20.1379 35.437 22.1632C37.4623 24.1886 38.6002 26.9357 38.6002 29.8V29.8ZM33.169 28.756L25.9834 24.796C25.8008 24.695 25.595 24.6434 25.3864 24.6462C25.1777 24.649 24.9734 24.7062 24.7936 24.8121C24.6138 24.918 24.4647 25.0689 24.3611 25.25C24.2575 25.4311 24.2028 25.6361 24.2026 25.8448V33.7648C24.2024 33.9737 24.2567 34.179 24.3602 34.3604C24.4637 34.5418 24.6127 34.6931 24.7926 34.7993C24.9725 34.9055 25.1769 34.9629 25.3858 34.9658C25.5946 34.9687 25.8006 34.9171 25.9834 34.816L33.169 30.856C33.3566 30.7522 33.5129 30.6001 33.6218 30.4155C33.7306 30.2308 33.7881 30.0204 33.7881 29.806C33.7881 29.5916 33.7306 29.3812 33.6218 29.1965C33.5129 29.0119 33.3566 28.8598 33.169 28.756V28.756Z"/>
</svg>
