<svg width="40" height="40" viewBox="0 0 40 40" fill="none" xmlns="http://www.w3.org/2000/svg">
<rect width="40" height="40" rx="4" fill="#F6F5F4"/>
<path d="M25.449 26.2857L26.124 25.6152C29.247 25.7172 29.295 25.6077 29.4322 25.2867L30.2902 23.198L30.354 23L30.2842 22.8267C30.2475 22.7352 30.1342 22.4622 28.1842 20.603V19.625C30.4342 17.4575 30.3862 17.3465 30.258 17.0292L29.4037 14.9187C29.2755 14.6022 29.2267 14.4785 26.1262 14.5632L25.4512 13.8657C25.5209 12.8383 25.4855 11.8065 25.3455 10.7862L25.2585 10.589L23.028 9.61398C22.6995 9.46398 22.584 9.40998 20.478 11.7035L19.5315 11.6892C17.3632 9.37473 17.2605 9.41673 16.9357 9.54798L14.862 10.3865C14.5372 10.5177 14.4225 10.5642 14.5485 13.7142L13.8787 14.3817C10.7572 14.2797 10.7092 14.3907 10.5735 14.7102L9.71398 16.7997L9.64648 17L9.71698 17.174C9.75373 17.264 9.86248 17.534 11.817 19.3955V20.3705C9.56698 22.538 9.61573 22.649 9.74473 22.967L10.5982 25.0797C10.7287 25.403 10.7752 25.5177 13.875 25.4367L14.55 26.138C14.48 27.1638 14.5144 28.1941 14.6527 29.213L14.7397 29.4117L16.9845 30.3927C17.3107 30.5292 17.424 30.578 19.524 28.2927L20.4705 28.3047C22.6417 30.6222 22.7527 30.5772 23.07 30.449L25.1392 29.6127C25.4662 29.483 25.5802 29.4372 25.449 26.2857ZM16.5555 21.3927C16.2938 20.7088 16.2399 19.9628 16.4006 19.2483C16.5613 18.5338 16.9294 17.8827 17.4588 17.3767C17.9882 16.8707 18.6552 16.5323 19.3762 16.4039C20.0972 16.2756 20.84 16.363 21.5115 16.6553C22.1829 16.9476 22.7531 17.4316 23.1505 18.0468C23.5479 18.6619 23.7548 19.3807 23.7452 20.1129C23.7355 20.8452 23.5099 21.5583 23.0965 22.1628C22.6831 22.7673 22.1004 23.2362 21.4215 23.5107C20.4952 23.873 19.4631 23.8535 18.5511 23.4565C17.6392 23.0596 16.9216 22.3175 16.5555 21.3927Z" fill="#BABABA"/>
</svg>
