<svg width="90" height="27" viewBox="0 0 90 27" fill="none" xmlns="http://www.w3.org/2000/svg">
<path d="M11.3379 25.592H12.4299C12.6119 24.474 13.1059 23.252 13.9379 21.926C15.6019 19.3 18.9559 16.726 21.8419 16.128V15.036C20.4119 14.724 19.0079 14.074 17.6559 13.112C14.8999 11.162 12.8719 8.25 12.4299 5.624H11.3379C11.0779 7.002 10.4799 8.328 9.54385 9.68C7.69785 12.358 4.81185 14.334 1.87385 15.036V16.128C3.35585 16.44 4.86385 17.168 6.34585 18.286C9.36185 20.548 10.9479 23.356 11.3379 25.592Z" fill="#2B788B"/>
<path d="M44.3379 25.592H45.4299C45.6119 24.474 46.1059 23.252 46.9379 21.926C48.6019 19.3 51.9559 16.726 54.8419 16.128V15.036C53.4119 14.724 52.0079 14.074 50.6559 13.112C47.8999 11.162 45.8719 8.25 45.4299 5.624H44.3379C44.0779 7.002 43.4799 8.328 42.5439 9.68C40.6979 12.358 37.8119 14.334 34.8739 15.036V16.128C36.3559 16.44 37.8639 17.168 39.3459 18.286C42.3619 20.548 43.9479 23.356 44.3379 25.592Z" fill="#C3DCE3"/>
<path d="M77.3379 25.592H78.4299C78.6119 24.474 79.1059 23.252 79.9379 21.926C81.6019 19.3 84.9559 16.726 87.8419 16.128V15.036C86.4119 14.724 85.0079 14.074 83.6559 13.112C80.8999 11.162 78.8719 8.25 78.4299 5.624H77.3379C77.0779 7.002 76.4799 8.328 75.5439 9.68C73.6979 12.358 70.8119 14.334 67.8739 15.036V16.128C69.3559 16.44 70.8639 17.168 72.3459 18.286C75.3619 20.548 76.9479 23.356 77.3379 25.592Z" fill="#C3DCE3"/>
</svg>
