<svg width="30" height="24" viewBox="0 0 30 24" fill="none" xmlns="http://www.w3.org/2000/svg">
<path fill-rule="evenodd" clip-rule="evenodd" d="M24.7277 3.68478C25.8259 3.99856 26.6104 4.78302 26.9241 5.88125C27.5517 7.92083 27.5517 12 27.5517 12C27.5517 12 27.5517 16.0791 27.081 18.1187C26.7673 19.2169 25.9828 20.0014 24.8845 20.3152C22.845 20.7858 15.0005 20.7858 15.0005 20.7858C15.0005 20.7858 6.99904 20.7858 5.11635 20.3152C4.01812 20.0014 3.23368 19.2169 2.91989 18.1187C2.44922 16.0791 2.44922 12 2.44922 12C2.44922 12 2.44921 7.92083 2.76299 5.88125C3.07678 4.78302 3.86124 3.99856 4.95948 3.68478C6.99905 3.21411 14.8436 3.21411 14.8436 3.21411C14.8436 3.21411 22.845 3.21411 24.7277 3.68478ZM12.4902 8.92388C12.4902 8.61675 12.822 8.4242 13.0887 8.57658L18.4718 11.6527C18.7406 11.8062 18.7406 12.1937 18.4718 12.3473L13.0887 15.4234C12.822 15.5758 12.4902 15.3832 12.4902 15.0761V8.92388Z" fill="#BABABA"/>
</svg>
